<?xml version="1.0" encoding="utf-8"?>
<!-- Generator: Adobe Illustrator 27.5.0, SVG Export Plug-In . SVG Version: 6.00 Build 0)  -->
<svg version="1.1" xmlns="http://www.w3.org/2000/svg" xmlns:xlink="http://www.w3.org/1999/xlink" x="0px" y="0px"
	 viewBox="0 0 700 500" style="enable-background:new 0 0 700 500;" xml:space="preserve">
<g id="BACKGROUND">
	<rect style="fill:#FFFFFF;" width="700" height="500"/>
</g>
<g id="OBJECT" xmlns:vectornator="http://vectornator.io">
	<g>
		<g id="Layer_2_1_" vectornator:layerName="Layer 2">
			<path style="fill:#ECF7FE;" d="M406.951,279.996c0,0,54.881,40.054,88.503,25.607c33.622-14.446,81.14-60.709,121.052-54.917
				c39.912,5.792,39.696,48.615,4.124,71.903c-35.571,23.288-128.527,58.036-183.34,19.632
				C382.477,303.818,389.926,280.037,406.951,279.996z"/>
			<path style="fill:#ECF7FE;" d="M132.724,158.941c0,0,1.083,34.354,29.001,63.536c27.918,29.181,95.787,36.533,133.869,32.01
				c38.083-4.523,38.076,26.651,51.662,12.432c13.586-14.219,1.566-37.203-35.378-45.598
				c-36.944-8.394-116.892-26.403-125.173-49.058C178.425,149.608,139.559,128.026,132.724,158.941z"/>
			<path style="fill:#ECF7FE;" d="M316.501,177.791c0,0-14.064,1.392-27.684-15.74c-13.621-17.131-5.727-28.882,2.249-27.396
				c7.976,1.487,5.695,19.828,16.638,24.161C318.648,163.15,326.609,174.151,316.501,177.791z"/>
			<path style="fill:#ECF7FE;" d="M88.677,269.921c-27.86,11.859,17.478,26.552,54.692,26.593c37.213,0.04,33.29,7.82,50.584,16.659
				c17.295,8.839,52.225,13.703,65.239,3.789c13.015-9.913-11.861,1.082-32.626-10.053
				C159.292,270.836,102.595,263.997,88.677,269.921z"/>
			<path style="fill:#ECF7FE;" d="M469.148,216.253c0,0,25.204-6.605,33.895-20.858c8.692-14.253,17.556-23.118,28.855-24.856
				c11.298-1.739,16.86,12.862,1.216,30.071c-15.643,17.208-34.416,37.545-56.839,33.026
				C453.852,229.116,460.805,222.337,469.148,216.253z"/>
			<path style="fill:#FEF0EC;" d="M119.207,219.522c0-5.471,4.486-9.905,10.021-9.905c5.535,0,10.021,4.434,10.021,9.905
				c0,5.47-4.486,9.904-10.021,9.904C123.693,229.426,119.207,224.992,119.207,219.522z"/>
			<path style="fill:#FEF0EC;" d="M251.115,175.008c0-4.054,3.339-7.341,7.458-7.341c4.119,0,7.458,3.287,7.458,7.341
				c0,4.055-3.339,7.342-7.458,7.342C254.454,182.35,251.115,179.063,251.115,175.008z"/>
			<path style="fill:#FEF0EC;" d="M627.103,177.311c0-2.597,2.024-4.702,4.521-4.702c2.497,0,4.521,2.105,4.521,4.702
				s-2.024,4.702-4.521,4.702C629.127,182.013,627.103,179.908,627.103,177.311z"/>
			<path style="fill:#BAEDE1;" d="M245.522,295.614c0-3.347,2.556-6.06,5.71-6.06c3.153,0,5.709,2.713,5.709,6.06
				c0,3.346-2.556,6.059-5.709,6.059C248.078,301.673,245.522,298.96,245.522,295.614z"/>
			<path style="fill:#BAEDE1;" d="M519.385,255.543c0-4.752,4.123-8.604,9.21-8.604c5.086,0,9.21,3.852,9.21,8.604
				c0,4.752-4.124,8.604-9.21,8.604C523.508,264.147,519.385,260.295,519.385,255.543z"/>
			<path style="fill:#BAEDE1;" d="M399.7,140.708c0-3.034,2.458-5.494,5.491-5.494c3.032,0,5.49,2.46,5.49,5.494
				c0,3.034-2.458,5.494-5.49,5.494C402.158,146.202,399.7,143.742,399.7,140.708z"/>
			<path style="fill:#FFE974;" d="M82.745,347.91l-11.218-19.43h22.436L82.745,347.91z"/>
			<path style="fill:#FFE974;" d="M401.011,266.941l-7.908-14.395h15.815L401.011,266.941z"/>
			<path style="fill:#FFE974;" d="M586.348,154.308l-11.218-19.192h22.436L586.348,154.308z"/>
			<path style="fill:#FFE974;" d="M625.007,372.557l-6.663-11.63h13.326L625.007,372.557z"/>
		</g>
		<g id="Layer_1_1_" vectornator:layerName="Layer 1">
			<path style="fill:#AD5449;" d="M128.748,255.147l7.798,16.398l7.002-0.581l-3.429-19.611l-5.955,0.968L128.748,255.147z"/>
			<path style="fill:#FFFFFF;" d="M201.033,223.125h79.183v0.587h-79.183V223.125z"/>
			<path style="fill:#AD5449;" d="M570.141,295.227c0,0,19.412-15.629,35.237-13.894c15.826,1.734,32.198,13.756,32.198,13.756
				l-30.958,24.526L570.141,295.227z"/>
			<path style="fill:#FFD40F;" d="M577.961,301.302l-0.708-36.024l54.006,1.542l0.048,37.641
				C631.307,304.461,604.413,344.821,577.961,301.302z"/>
			<path style="fill:#FFD40F;" d="M190.264,202.815h101.464v74.798H190.264V202.815z"/>
			<path style="fill:#FFFFFF;" d="M200.756,215.07h79.183v0.586h-79.183V215.07z"/>
			<path style="fill:#FFFFFF;" d="M201.033,223.125h79.183v0.587h-79.183V223.125z"/>
			<path style="fill:#FFFFFF;" d="M200.887,230.741h79.183v0.587h-79.183V230.741z"/>
			<path style="fill:#FFFFFF;" d="M200.727,238.977h79.183v0.587h-79.183V238.977z"/>
			<path style="fill:#FFFFFF;" d="M200.557,247.374h79.183v0.587h-79.183V247.374z"/>
			<path style="fill:#FFFFFF;" d="M200.562,256.685h79.183v0.586h-79.183V256.685z"/>
			<path style="fill:#FFFFFF;" d="M281.153,264.971v2.077h-81.999v-2.077H281.153z"/>
			<path style="fill:#5CCBB1;" d="M291.628,199.684H190.164v-6.867c0-3.367,2.729-6.096,6.096-6.096h89.271
				c3.367,0,6.097,2.729,6.097,6.096V199.684z"/>
			<path style="fill:#FFD40F;" d="M384.074,149.277h-53.796v-5.451c0-2.673,1.447-4.839,3.233-4.839h47.331
				c1.785,0,3.232,2.166,3.232,4.839V149.277z"/>
			<path style="fill:#CB685C;" d="M305.65,305.865l15.493-14.26c0,0,30.986,27.641,46.656,38.028c0,0-0.176-0.528,5.105,0.529
				c0,0,35.388-29.402,52.818-41.374c17.43-11.972,30.635-19.191,34.684-20.775c4.049-1.585,24.131-11.345,24.131-11.345
				s4.958,5.246,9.536,9.529c4.578,4.283,27.047,16.516,32.848,24.473c5.8,7.957,7.57,38.049,8.211,60.426
				c0.64,22.377,2.326,43.129,2.326,43.129l-130.297,1.164c0,0,4.419-27.813,6.322-43.038c0,0-36.397,20.934-50.908,19.744
				C348.064,370.906,305.65,305.865,305.65,305.865z"/>
			<path style="fill:#FFD40F;" d="M465.24,394.883c0,0-2.644-51.784,3.967-78.447c6.61-26.663,16.857-45.724,16.857-45.724
				s-21.815,10.136-24.019,10.026c-2.203-0.11-7.933-4.958-7.933-4.958s-10.467,25.892-14.213,52.445
				c-3.746,26.553-7.382,59.386-6.941,66.768L465.24,394.883z"/>
			<path style="fill:#4A4481;" d="M456.47,265.975c0,0-6.05,8.871-7.84,14.538c-1.791,5.666,0.046,5.694,1.449,4.731
				c1.403-0.962,6.816-5.929,7.729-6.214l-0.296,8.13l7.031,0.063c0,0,0.909-6.243,2.629-9.483
				C468.892,274.5,456.063,270.134,456.47,265.975z"/>
			<path style="fill:#4A4481;" d="M460.473,151.892c-4.332-0.043-9.254,0.756-14.782,2.844
				c-29.478,11.136-26.354,26.212-23.406,31.125c0.646,1.077,0.605,1.326,0.938,2.031c0.535-3.85,1.187-5.468,1.187-5.468
				c6.715,3.275,41.094,0.312,41.094,0.312s1.472,12.453,3.437,16.875c1.966,4.422,3.932,1.797,4.75,6.219
				c0.819,4.422,2.644,5.735,4.282,1.969c1.637-3.767,4.535-5.685,7.843-1.157c5.975,8.179-3.697,17.041-3.697,17.041
				c-0.03,0.34,0.301,1.655,0.285,2.066c0.191,0.275,0.034,3.354,0.034,3.354s16.976-28.187,14.847-40.961
				s-4.097-17.363-10.156-19.656C487.129,168.486,479.244,152.082,460.473,151.892z"/>
			<path style="fill:#D3A0A0;" d="M424.463,182.326c0,0-2.293,4.913-1.802,21.454c0.492,16.54-0.491,32.753,6.387,40.451
				c6.879,7.697,16.869,12.119,23.419,10.972c0,0,4.75,7.042,4.095,16.05c0,0,0.163,8.352,5.895,6.387
				c5.732-1.966,22.323-16.813,23.306-19.597c0,0-3.817-27.078-3.162-34.447c0,0,9.071-8.726,3.275-17.032
				c-3.239-4.643-6.223-2.621-7.86,1.146c-1.638,3.767-3.44,2.457-4.258-1.965c-0.819-4.422-2.785-1.802-4.75-6.224
				c-1.965-4.421-3.439-16.868-3.439-16.868S431.177,185.601,424.463,182.326z"/>
			<path style="fill:#4A4481;" d="M461.753,278.752c0,0,21.182-21.949,22.679-23.492c1.498-1.543,1.428-1.446,1.428-1.446
				s6.626,9.854,6.902,10.82c0,0-13.339,17.68-16.215,22.38c-1.477,2.413-3.326,3.791-7.114-1.214
				C465.645,280.795,464.163,279.254,461.753,278.752z"/>
			<path style="fill:#CB685C;" d="M402.48,376.943c0,0,60.607,0.691,74.918,5.563c14.311,4.873,21.592,12.02,21.592,12.02
				l-91.912,0.939C407.078,395.465,407.529,383.017,402.48,376.943z"/>
			<path style="fill:#B54B3E;" d="M468.624,381.35l39.43-88.061C508.054,293.289,470.078,349.836,468.624,381.35z"/>
			<path style="fill:#B54B3E;" d="M524.766,347.994l-25.405,45.185C499.361,393.179,526.026,370.878,524.766,347.994z"/>
			<path style="fill:#B54B3E;" d="M371.856,333.297l8.727,10.869C380.583,344.166,383.915,336.392,371.856,333.297z"/>
			<path style="fill:#B54B3E;" d="M414.279,349.996c0,0,11.181-41.014,18.009-54.605
				C432.288,295.391,415.641,307.882,414.279,349.996z"/>
			<path style="fill:#D3A0A0;" d="M403.19,377.031c0,0-27.467-7.69-31.379-7.226c-3.912,0.464-8.074,8.989-9.683,13.565
				c-1.609,4.576,2.369,5.652,2.369,5.652s0.964,2.748,3.527,3.701c0,0,2.314,1.74,4.5,2.442l34.821-0.009
				C407.345,395.156,410.194,382.154,403.19,377.031z"/>
			<path style="fill:#5CCBB1;" d="M269.612,395.738l109.154-0.516l-29.662-72.538c0,0-1.504-3.315-5.33-3.4
				c-3.826-0.085-96.816,2.656-96.816,2.656s-2.646,1.623-1.548,3.876C246.509,328.069,269.612,395.738,269.612,395.738z"/>
			<path style="fill:#D3A0A0;" d="M320.489,291.403c0,0-7.884-15.332-10.762-17.975c-2.878-2.643-11.692-4.559-11.692-4.559
				s-9.421-7.423-15.308-8.163c-5.887-0.741-10.225-1.028-11.592,1.367c-1.368,2.395,3.505,4.525,7.273,4.85
				c3.768,0.324,3.53,0.393,3.53,0.393l7.126,6.117c0,0-1.808,0.654-2.813,2.299c-1.005,1.646-0.886,3.609-0.886,3.609
				s-1.824,1.045-2.645,3.991c-0.82,2.945-0.769,3.123-0.769,3.123s-1.208,3.832-0.886,5.607c0.322,1.776,3.983,4.839,6.24,5.73
				c2.257,0.892,3.826-0.143,3.826-0.143s4.247,5.083,8.199,6.708c3.952,1.624,6.282,1.657,6.282,1.657
				S316.752,302.821,320.489,291.403z"/>
			<path style="fill:none;stroke:#6E4B4B;stroke-width:2.06;stroke-linejoin:round;" d="M415.781,213.194
				c-0.469-6.638,3.943-12.358,9.853-12.775c5.91-0.417,11.081,4.626,11.549,11.265c0.469,6.639-3.943,12.359-9.853,12.776
				C421.42,224.877,416.249,219.833,415.781,213.194z"/>
			<path style="fill:none;stroke:#6E4B4B;stroke-width:2.06;stroke-linejoin:round;" d="M443.813,212.08
				c-0.469-6.638,3.942-12.358,9.852-12.775c5.911-0.417,11.081,4.626,11.55,11.265c0.468,6.639-3.943,12.359-9.853,12.776
				C449.452,223.763,444.281,218.719,443.813,212.08z"/>
			<path style="fill:#AC7373;" d="M440.33,214.744c0,0-6.529,11.769-3.764,14.182c2.764,2.413,5.935,1.948,5.935,1.948
				S435.775,229.787,440.33,214.744z"/>
			<path style="fill:#243C52;" d="M447.918,196.28l9.603-1.642C457.521,194.638,450.99,190.007,447.918,196.28z"/>
			<path style="fill:#243C52;" d="M425.116,195.659l7.923,1.475C433.039,197.134,430.698,191.25,425.116,195.659z"/>
			<path style="fill:#243C52;" d="M450.291,209.683c0-1.872,0.716-3.39,1.599-3.39c0.883,0,1.599,1.518,1.599,3.39
				c0,1.873-0.716,3.39-1.599,3.39C451.007,213.073,450.291,211.556,450.291,209.683z"/>
			<path style="fill:#243C52;" d="M428.027,211.607c0-1.873,0.602-3.39,1.344-3.39s1.343,1.517,1.343,3.39
				c0,1.872-0.601,3.39-1.343,3.39S428.027,213.479,428.027,211.607z"/>
			<path style="fill:none;stroke:#6E4B4B;stroke-width:2.06;stroke-linejoin:round;" d="M443.799,212.026
				c0,0-4.392-1.561-6.649,0.729"/>
			<path style="fill:none;stroke:#6E4B4B;stroke-width:2.06;stroke-linejoin:round;" d="M477.444,206.542l-11.973,4.139"/>
			<path style="fill:#924C43;" d="M438.374,236.655c0,0,9.48-3.205,14.345-4.648C452.719,232.007,452.052,247.351,438.374,236.655z"
				/>
			<path style="fill:#AC7373;" d="M455.183,253.777c0,0,19.466-10.699,24.669-26.108
				C479.852,227.669,478.497,249.857,455.183,253.777z"/>
			<path style="fill:#AC7373;" d="M456.697,259.473c0,0,0.742,4.395,4.53,5.757l-4.583-9.142L456.697,259.473z"/>
			<path style="fill:#AC7373;" d="M482.831,207.596l-2.967,11.028C479.864,218.624,476.704,210.434,482.831,207.596z"/>
			<path style="fill:#AC7373;" d="M480.832,211.078l3.611-0.451l-4.321,3.418L480.832,211.078z"/>
			<path style="fill:#3B366A;" d="M485.771,170.313l-16.736,8.738C469.035,179.051,475.226,168.507,485.771,170.313z"/>
			<path style="fill:#AC7373;" d="M296.95,269.659c0,0-5.176-1.097-5.842,1.075c-0.665,2.172,5.346,6.579,8.69,8.049
				c3.343,1.471,6.434,3.722,6.434,3.722l-3.525-0.097c0,0-1.676,4.63-0.91,8.196c0.766,3.565,2.923,4.85,2.923,4.85
				s-3.527-0.947-4.69-3.739s-0.353-7.982,0.649-9.966c0,0-8.027-5.353-9.767-7.51C289.171,272.082,287.572,267.569,296.95,269.659z
				"/>
			<path style="fill:#AC7373;" d="M285.836,280.392c0,0-0.558,3.229,0.834,5.153c1.391,1.925,6.254,4.764,6.254,4.764
				c3.138-0.267,5.654-1.069,4.991-3.765c-0.664-2.697-4.119-4.23-4.119-4.23l1.031-2.89l-2.277,1.822l-2.81-0.581
				c0,0,3.401,2.683,5.238,4.341c1.836,1.658,1.824,3.126,0.033,3.819C293.221,289.517,286.91,286.234,285.836,280.392z"/>
			<path style="fill:#AC7373;" d="M283.399,290.387c0,0,5.304,4.748,7.815,3.758c2.51-0.989,1.655-4.198,1.655-4.198l1.556-0.012
				c0,0,0.625,2.896-1.751,4.698C290.297,296.435,286.984,295.24,283.399,290.387z"/>
			<path style="fill:#AC7373;" d="M282.156,266.964l1.513-3.024C283.669,263.94,285.632,265.373,282.156,266.964z"/>
			<path style="fill:#AC7373;" d="M291.228,295.039c-0.072,0.919-1.259,2.245-3.376,1.942c-2.118-0.303-4.629-2.007-4.629-2.007
				s4.903,5.002,8.062,2.79c3.16-2.211,0.577-3.328,0.577-3.328S291.301,294.121,291.228,295.039z"/>
			<path style="fill:#AC7373;" d="M300.314,296.461c0,0,4.718,6.862,9.831,5.075C315.257,299.748,306.314,300.151,300.314,296.461z"
				/>
			<path style="fill:#5CB0CB;" d="M330.587,152.492h53.377v104.685h-53.377V152.492z"/>
			<path style="fill:#A0BFD3;" d="M538.875,209.462c0-21.404,17.999-38.755,40.202-38.755c22.204,0,40.203,17.351,40.203,38.755
				s-17.999,38.755-40.203,38.755C556.874,248.217,538.875,230.866,538.875,209.462z"/>
			<path style="fill:#678BA3;" d="M575.443,210.5c0-2.056,1.754-3.723,3.917-3.723c2.163,0,3.916,1.667,3.916,3.723
				s-1.753,3.723-3.916,3.723C577.197,214.223,575.443,212.556,575.443,210.5z"/>
			<path style="fill:#CB685C;" d="M234.031,119.062l-3.281,8.188c-1.061,0.148-2.091,0.383-3.062,0.75l-7.157-5.469l-5.093,5.844
				l4.906,6.094c-0.633,1.191-1.096,2.449-1.344,3.812l-8.406,3l2.5,7.25l7.718-0.843c0.701,1.114,1.572,2.096,2.563,2.968
				l-1.594,8.375l8.063,2.719l3.656-7.594c1.41-0.077,2.765-0.358,4.031-0.812l6.469,5.625l5.438-5.531l-4.5-6.376
				c0.904-1.631,1.475-3.458,1.624-5.406l8.407-3.625l-2.938-7.093l-8.312,1.468c-0.721-0.912-1.568-1.729-2.5-2.437l1.062-8.719
				L234.031,119.062z M232.625,133.344c4.245,0,7.687,3.303,7.687,7.375c0,4.072-3.442,7.375-7.687,7.375s-7.687-3.303-7.687-7.375
				C224.938,136.647,228.38,133.344,232.625,133.344z"/>
			<path style="fill:#D46B5D;" d="M520.567,109.087c-12.371,0-22.39,9.817-22.39,21.925c0,7.108,3.504,13.372,8.862,17.378
				l-2.924,10.526l9.174-7.256c2.296,0.777,4.713,1.277,7.278,1.277c12.371,0,22.412-9.817,22.412-21.925
				S532.938,109.087,520.567,109.087z"/>
			<path style="fill:#CB685C;" d="M570.129,295.194l0.931,38.663l64.583,0.33l1.974-39.112c0,0-23.745,10.651-31.489,23.945
				C606.128,319.02,589.962,299.764,570.129,295.194z"/>
			<path style="fill:#AD5448;" d="M606.004,320.625l-7.562,12.281C598.442,332.906,597.901,322.98,606.004,320.625z"/>
			<path style="fill:#CB685C;" d="M96.032,268.973l42.516-17.127l-1.477-13.853l-42.232-7.656L96.032,268.973z"/>
			<path style="fill:#A0BFD3;" d="M91.451,251.396c-0.307-10.546,1.273-19.879,3.528-20.845c2.255-0.966,4.333,6.801,4.639,17.347
				c0.307,10.546-1.273,19.878-3.528,20.844C93.835,269.708,91.758,261.942,91.451,251.396z"/>
			<path style="fill:#DBA500;" d="M135.501,253.099l11.224-2.849l-0.895-11.664l-11.857-1.164L135.501,253.099z"/>
			<path style="fill:#4A4481;" d="M518,139.393h6.338v4.525c0,1.597-1.334,2.892-2.98,2.892h-0.378c-1.646,0-2.98-1.295-2.98-2.892
				V139.393z"/>
			<path style="fill:#FFD40F;" d="M508.545,128.088c0-6.851,5.689-12.405,12.707-12.405s12.708,5.554,12.708,12.405
				s-5.69,12.405-12.708,12.405S508.545,134.939,508.545,128.088z"/>
			<path style="fill:#F9E175;" d="M513.204,128.057c0-4.575,3.702-8.284,8.269-8.284c4.567,0,8.269,3.709,8.269,8.284
				c0,4.575-3.702,8.284-8.269,8.284C516.906,136.341,513.204,132.632,513.204,128.057z"/>
			<path style="fill:#FFFFFF;" d="M521.121,127.479L521.121,127.479c0.635,0,1.149,0.516,1.149,1.152v7.54
				c0,0.637-0.514,1.153-1.149,1.153l0,0c-0.634,0-1.149-0.516-1.149-1.153v-7.54C519.972,127.995,520.487,127.479,521.121,127.479z
				"/>
			<path style="fill:#FFD40F;" d="M335.902,159.754h11.372v37.145h-11.372V159.754z"/>
			<path style="fill:#FFFFFF;" d="M353.282,177.457h25.974v3.121h-25.974V177.457z"/>
			<path style="fill:#FFFFFF;" d="M353.27,185.301h25.973v3.121H353.27V185.301z"/>
			<path style="fill:#FFFFFF;" d="M353.096,193.616h25.974v3.121h-25.974V193.616z"/>
			<path style="fill:#FFFFFF;" d="M352.907,161.551h25.974v8.593h-25.974V161.551z"/>
			<path style="fill:#FFFFFF;" d="M362.673,213.477c0-3.943,3.228-7.139,7.21-7.139s7.21,3.196,7.21,7.139
				c0,3.942-3.228,7.138-7.21,7.138S362.673,217.419,362.673,213.477z"/>
			<path style="fill:#FFFFFF;" d="M340.74,225.929h0.774v0.045h-0.774V225.929z"/>
			<path style="fill:#FFFFFF;" d="M335.052,225.714h44.664v13.88h-44.664V225.714z"/>
			<path style="fill:#FFFFFF;" d="M198.677,211.011h2.077v56.116h-2.077V211.011z"/>
			<path style="fill:none;stroke:#933939;stroke-width:2.06;stroke-linejoin:round;" d="M200.941,249.791l7.193-7.522l19.206,20.892
				l12.91-19.842l13.831-0.109l4.205-9.057l13.564,0.193l7.445-7.873"/>
			<path style="fill:#5CB0CB;" d="M197.143,209.544c0-1.388,1.135-2.512,2.534-2.512c1.4,0,2.534,1.124,2.534,2.512
				c0,1.387-1.134,2.512-2.534,2.512C198.278,212.056,197.143,210.931,197.143,209.544z"/>
			<path style="fill:#A94747;stroke:#933939;stroke-width:2.06;stroke-linejoin:round;" d="M238.404,243.582
				c0-1.388,1.134-2.512,2.534-2.512c1.399,0,2.534,1.124,2.534,2.512c0,1.387-1.135,2.512-2.534,2.512
				C239.538,246.094,238.404,244.969,238.404,243.582z"/>
			<path style="fill:#A94747;stroke:#933939;stroke-width:2.06;stroke-linejoin:round;" d="M256.578,234.114
				c0-1.388,1.134-2.512,2.534-2.512c1.399,0,2.534,1.124,2.534,2.512c0,1.387-1.135,2.512-2.534,2.512
				C257.712,236.626,256.578,235.501,256.578,234.114z"/>
			<path style="fill:#A94747;stroke:#933939;stroke-width:2.06;stroke-linejoin:round;" d="M277.309,226.496
				c0-1.387,1.135-2.512,2.534-2.512c1.4,0,2.534,1.125,2.534,2.512c0,1.387-1.134,2.512-2.534,2.512
				C278.444,229.008,277.309,227.883,277.309,226.496z"/>
			<path style="fill:#A94747;stroke:#933939;stroke-width:2.06;stroke-linejoin:round;" d="M225.29,261.919
				c0-1.387,1.134-2.512,2.534-2.512c1.399,0,2.534,1.125,2.534,2.512s-1.135,2.512-2.534,2.512
				C226.424,264.431,225.29,263.306,225.29,261.919z"/>
			<path style="fill:#A94747;stroke:#933939;stroke-width:2.06;stroke-linejoin:round;" d="M206.354,243.418
				c0-1.387,1.135-2.512,2.534-2.512c1.4,0,2.534,1.125,2.534,2.512c0,1.388-1.134,2.512-2.534,2.512
				C207.489,245.93,206.354,244.806,206.354,243.418z"/>
			<path style="fill:#FFD40F;" d="M276.156,190.697h9.353v7.015h-9.353V190.697z"/>
			<path style="fill:#FFFFFF;" d="M293.601,363.214c-1.479-5.427,1.725-10.938,7.157-12.309c5.431-1.37,11.033,1.919,12.512,7.347
				c1.479,5.428-0.901,11.079-6.333,12.449C301.506,372.072,295.08,368.642,293.601,363.214z"/>
			<path style="fill:#5CB0CB;" d="M129.125,304.594v27.094h8.844l-4.063,9.218l16.188-9.218h72.031v-27.094H129.125z"/>
			<path style="fill:#5CCBB1;" d="M130.781,348.156v27.125h69.531l15.626,9.188l-3.907-9.188h8.531v-27.125H130.781z"/>
			<path style="fill:#5C6CCB;" d="M98.614,317.738c0-6.155,5.207-11.145,11.631-11.145c6.423,0,11.63,4.99,11.63,11.145
				s-5.207,11.145-11.63,11.145C103.821,328.883,98.614,323.893,98.614,317.738z"/>
			<path style="fill:#CB685C;" d="M249.989,361.309c0-6.155-5.025-11.145-11.224-11.145s-11.224,4.99-11.224,11.145
				c0,6.156,5.025,11.145,11.224,11.145S249.989,367.465,249.989,361.309z"/>
			<path style="fill:#FFFFFF;" d="M114.899,324.259h-8.969v-4.834c0-1.848,1.525-3.346,3.407-3.346h2.155
				c1.882,0,3.407,1.498,3.407,3.346V324.259z"/>
			<path style="fill:#FFFFFF;" d="M234.273,367.83h8.656v-4.834c0-1.847-1.472-3.345-3.288-3.345h-2.08
				c-1.816,0-3.288,1.498-3.288,3.345V367.83z"/>
			<path style="fill:#FFFFFF;" d="M107.427,313.189c0-1.46,1.252-2.644,2.797-2.644s2.798,1.184,2.798,2.644
				s-1.253,2.644-2.798,2.644S107.427,314.649,107.427,313.189z"/>
			<path style="fill:#FFFFFF;" d="M241.485,356.76c0-1.46-1.209-2.643-2.7-2.643s-2.7,1.183-2.7,2.643c0,1.46,1.209,2.644,2.7,2.644
				S241.485,358.22,241.485,356.76z"/>
			<path style="fill:#FFFFFF;" d="M134.992,308.927h81.575v1.769h-81.575V308.927z"/>
			<path style="fill:#FFFFFF;" d="M584.143,277.203h39.844v1.889h-39.844V277.203z"/>
			<path style="fill:#FFFFFF;" d="M214.883,352.498H136.16v1.769h78.723V352.498z"/>
			<path style="fill:#FFFFFF;" d="M135.259,318.148h71.467v1.769h-71.467V318.148z"/>
			<path style="fill:#FFFFFF;" d="M589.39,287.177h30.409v1.89H589.39V287.177z"/>
			<path style="fill:#FFFFFF;" d="M214.626,361.72h-68.969v1.768h68.969V361.72z"/>
			<path style="fill:#FFFFFF;" d="M134.88,313.732h78.195v1.813H134.88V313.732z"/>
			<path style="fill:#FFFFFF;" d="M587.15,282.337h33.272v1.937H587.15V282.337z"/>
			<path style="fill:#FFFFFF;" d="M214.991,357.303H139.53v1.813h75.461V357.303z"/>
			<path style="fill:#FFFFFF;" d="M135.829,322.734h49.747v1.813h-49.747V322.734z"/>
			<path style="fill:#FFFFFF;" d="M593.608,291.832h21.167v1.937h-21.167V291.832z"/>
			<path style="fill:#FFFFFF;" d="M214.075,366.305h-48.008v1.813h48.008V366.305z"/>
			<path style="fill:#5CCBB1;" d="M561.137,381.747l-0.375,12.875l10.437-12.875h16.679c3.042,0,5.509-2.466,5.509-5.508v-19.108
				c0-3.042-2.467-5.509-5.509-5.509h-34.482c-3.043,0-5.509,2.467-5.509,5.509v19.108c0,3.042,2.466,5.508,5.509,5.508H561.137z"/>
			<path style="fill:#5CCBB1;" d="M150.913,177.362l-0.259,8.323l7.197-8.323h11.5c2.098,0,3.798-1.594,3.798-3.561v-12.352
				c0-1.966-1.7-3.561-3.798-3.561h-23.776c-2.098,0-3.798,1.595-3.798,3.561v12.352c0,1.967,1.7,3.561,3.798,3.561H150.913z"/>
			<path style="fill:#FFFFFF;" d="M563.538,355.907c-1.205-0.096-2.348,0.338-3.262,1.685c-3.661,5.397,1.595,16.022,9.505,20.681
				l-0.005,0.067c0.015-0.006,0.023-0.025,0.037-0.031c0.022,0.013,0.045,0.026,0.066,0.038l0.005-0.067
				c8.068-3.604,14.389-13.463,11.662-19.281c-2.556-5.452-9.65,1.159-10.545,2.016C570.39,360.287,566.848,356.173,563.538,355.907
				z"/>
			<path style="fill:#FFFFFF;" d="M152.568,160.658c-0.831-0.062-1.619,0.218-2.249,1.089c-2.524,3.489,1.1,10.358,6.554,13.369
				l-0.003,0.044c0.01-0.005,0.015-0.017,0.025-0.021c0.015,0.008,0.031,0.017,0.046,0.025l0.003-0.044
				c5.563-2.329,9.921-8.702,8.041-12.464c-1.763-3.524-6.654,0.75-7.271,1.304C157.293,163.49,154.851,160.83,152.568,160.658z"/>
			<path style="fill:#678BA3;" d="M579.426,179.101L579.426,179.101c0.825,0,1.493,0.715,1.493,1.598v31.063
				c0,0.882-0.668,1.597-1.493,1.597l0,0c-0.825,0-1.493-0.715-1.493-1.597v-31.063
				C577.933,179.816,578.601,179.101,579.426,179.101z"/>
			<path style="fill:#678BA3;" d="M578.992,211.92L578.992,211.92c0.87,0.408,1.314,1.195,0.994,1.757l-11.289,19.803
				c-0.32,0.563-1.285,0.688-2.154,0.28l0,0c-0.87-0.408-1.315-1.194-0.994-1.757l11.288-19.803
				C577.158,211.638,578.123,211.512,578.992,211.92z"/>
			<path style="fill:#A0BFD3;" d="M370.007,279.789l-2.369,5.951c-0.766,0.108-1.509,0.279-2.21,0.546l-5.165-3.976l-3.677,4.248
				l3.541,4.43c-0.456,0.866-0.791,1.781-0.97,2.771l-6.067,2.181l1.804,5.27l5.572-0.613c0.505,0.81,1.134,1.524,1.849,2.158
				l-1.15,6.088l5.819,1.976l2.639-5.52c1.018-0.056,1.996-0.26,2.91-0.59l4.669,4.089l3.925-4.021l-3.248-4.634
				c0.653-1.186,1.065-2.514,1.172-3.93l6.068-2.635l-2.12-5.157l-6,1.068c-0.52-0.664-1.132-1.257-1.805-1.772l0.767-6.338
				L370.007,279.789z M368.792,290.792c2.877,0.094,5.15,2.431,5.075,5.218c-0.075,2.788-2.469,4.974-5.346,4.88
				c-2.878-0.093-5.15-2.43-5.076-5.218C363.52,292.884,365.914,290.699,368.792,290.792z"/>
			<path style="fill:#A0BFD3;" d="M374.458,144.015c0-1.752,1.391-3.173,3.106-3.173c1.716,0,3.107,1.421,3.107,3.173
				s-1.391,3.172-3.107,3.172C375.849,147.187,374.458,145.767,374.458,144.015z"/>
		</g>
	</g>
</g>
</svg>
